<mxfile host="app.diagrams.net" agent="Mozilla/5.0 (Windows NT 10.0; Win64; x64) AppleWebKit/537.36 (KHTML, like Gecko) Chrome/131.0.0.0 Safari/537.36" version="26.0.4">
  <diagram name="Page-1" id="ylDPdNrXPn1Qpc4dRx3r">
    <mxGraphModel dx="1147" dy="618" grid="1" gridSize="10" guides="1" tooltips="1" connect="1" arrows="1" fold="1" page="1" pageScale="1" pageWidth="827" pageHeight="583" math="0" shadow="0">
      <root>
        <mxCell id="0" />
        <mxCell id="1" parent="0" />
        <mxCell id="ndKudGg0fzIpXVuhii56-20" value="&lt;font style=&quot;font-size: 20px;&quot;&gt;US SOFTWARE&lt;/font&gt;" style="rounded=0;whiteSpace=wrap;html=1;" parent="1" vertex="1">
          <mxGeometry x="324" y="10" width="216" height="50" as="geometry" />
        </mxCell>
        <mxCell id="jVVl0sPdiUsV8J7GFoBU-2" style="edgeStyle=orthogonalEdgeStyle;rounded=0;orthogonalLoop=1;jettySize=auto;html=1;exitX=0.5;exitY=1;exitDx=0;exitDy=0;entryX=0.5;entryY=0;entryDx=0;entryDy=0;" edge="1" parent="1" source="ndKudGg0fzIpXVuhii56-1" target="jVVl0sPdiUsV8J7GFoBU-1">
          <mxGeometry relative="1" as="geometry" />
        </mxCell>
        <mxCell id="ndKudGg0fzIpXVuhii56-1" value="USSensorGetReading" style="rounded=0;whiteSpace=wrap;html=1;container=0;" parent="1" vertex="1">
          <mxGeometry x="169" y="180" width="140" height="30" as="geometry" />
        </mxCell>
        <mxCell id="jVVl0sPdiUsV8J7GFoBU-5" style="edgeStyle=orthogonalEdgeStyle;rounded=0;orthogonalLoop=1;jettySize=auto;html=1;exitX=0.5;exitY=1;exitDx=0;exitDy=0;entryX=0.5;entryY=0;entryDx=0;entryDy=0;" edge="1" parent="1" source="jVVl0sPdiUsV8J7GFoBU-1" target="jVVl0sPdiUsV8J7GFoBU-4">
          <mxGeometry relative="1" as="geometry" />
        </mxCell>
        <mxCell id="jVVl0sPdiUsV8J7GFoBU-1" value="Select US Sensor&lt;div&gt;From 0 to 3&lt;/div&gt;" style="rounded=0;whiteSpace=wrap;html=1;" vertex="1" parent="1">
          <mxGeometry x="189" y="230" width="100" height="50" as="geometry" />
        </mxCell>
        <mxCell id="jVVl0sPdiUsV8J7GFoBU-7" style="edgeStyle=orthogonalEdgeStyle;rounded=0;orthogonalLoop=1;jettySize=auto;html=1;exitX=0.5;exitY=1;exitDx=0;exitDy=0;entryX=0.5;entryY=0;entryDx=0;entryDy=0;" edge="1" parent="1" source="jVVl0sPdiUsV8J7GFoBU-4" target="jVVl0sPdiUsV8J7GFoBU-6">
          <mxGeometry relative="1" as="geometry" />
        </mxCell>
        <mxCell id="jVVl0sPdiUsV8J7GFoBU-4" value="Send Trig Pulse" style="rounded=0;whiteSpace=wrap;html=1;" vertex="1" parent="1">
          <mxGeometry x="189" y="300" width="100" height="30" as="geometry" />
        </mxCell>
        <mxCell id="jVVl0sPdiUsV8J7GFoBU-9" style="edgeStyle=orthogonalEdgeStyle;rounded=0;orthogonalLoop=1;jettySize=auto;html=1;exitX=0.5;exitY=1;exitDx=0;exitDy=0;entryX=0.5;entryY=0;entryDx=0;entryDy=0;" edge="1" parent="1" source="jVVl0sPdiUsV8J7GFoBU-6" target="jVVl0sPdiUsV8J7GFoBU-8">
          <mxGeometry relative="1" as="geometry" />
        </mxCell>
        <mxCell id="jVVl0sPdiUsV8J7GFoBU-11" value="NO" style="edgeLabel;html=1;align=center;verticalAlign=middle;resizable=0;points=[];" vertex="1" connectable="0" parent="jVVl0sPdiUsV8J7GFoBU-9">
          <mxGeometry x="0.041" y="-2" relative="1" as="geometry">
            <mxPoint x="12" y="-6" as="offset" />
          </mxGeometry>
        </mxCell>
        <mxCell id="jVVl0sPdiUsV8J7GFoBU-17" style="edgeStyle=orthogonalEdgeStyle;rounded=0;orthogonalLoop=1;jettySize=auto;html=1;exitX=1;exitY=0.5;exitDx=0;exitDy=0;entryX=0;entryY=0.5;entryDx=0;entryDy=0;" edge="1" parent="1" source="jVVl0sPdiUsV8J7GFoBU-6" target="jVVl0sPdiUsV8J7GFoBU-16">
          <mxGeometry relative="1" as="geometry" />
        </mxCell>
        <mxCell id="jVVl0sPdiUsV8J7GFoBU-18" value="YES" style="edgeLabel;html=1;align=center;verticalAlign=middle;resizable=0;points=[];" vertex="1" connectable="0" parent="jVVl0sPdiUsV8J7GFoBU-17">
          <mxGeometry x="0.0214" y="-1" relative="1" as="geometry">
            <mxPoint x="-6" y="-11" as="offset" />
          </mxGeometry>
        </mxCell>
        <mxCell id="jVVl0sPdiUsV8J7GFoBU-6" value="Timeout" style="rhombus;whiteSpace=wrap;html=1;" vertex="1" parent="1">
          <mxGeometry x="209" y="350" width="60" height="60" as="geometry" />
        </mxCell>
        <mxCell id="jVVl0sPdiUsV8J7GFoBU-15" style="edgeStyle=orthogonalEdgeStyle;rounded=0;orthogonalLoop=1;jettySize=auto;html=1;exitX=1;exitY=0.5;exitDx=0;exitDy=0;entryX=0;entryY=0.5;entryDx=0;entryDy=0;" edge="1" parent="1" source="jVVl0sPdiUsV8J7GFoBU-8" target="jVVl0sPdiUsV8J7GFoBU-13">
          <mxGeometry relative="1" as="geometry" />
        </mxCell>
        <mxCell id="jVVl0sPdiUsV8J7GFoBU-8" value="Calculate distance from Echo time" style="rounded=0;whiteSpace=wrap;html=1;" vertex="1" parent="1">
          <mxGeometry x="184" y="430" width="110" height="40" as="geometry" />
        </mxCell>
        <mxCell id="jVVl0sPdiUsV8J7GFoBU-13" value="Return distance" style="rounded=0;whiteSpace=wrap;html=1;" vertex="1" parent="1">
          <mxGeometry x="329" y="430" width="110" height="40" as="geometry" />
        </mxCell>
        <mxCell id="jVVl0sPdiUsV8J7GFoBU-16" value="Return 0" style="rounded=0;whiteSpace=wrap;html=1;" vertex="1" parent="1">
          <mxGeometry x="329" y="360" width="110" height="40" as="geometry" />
        </mxCell>
        <mxCell id="jVVl0sPdiUsV8J7GFoBU-21" style="edgeStyle=orthogonalEdgeStyle;rounded=0;orthogonalLoop=1;jettySize=auto;html=1;exitX=0.5;exitY=1;exitDx=0;exitDy=0;entryX=0.5;entryY=0;entryDx=0;entryDy=0;" edge="1" parent="1" source="jVVl0sPdiUsV8J7GFoBU-19" target="jVVl0sPdiUsV8J7GFoBU-20">
          <mxGeometry relative="1" as="geometry" />
        </mxCell>
        <mxCell id="jVVl0sPdiUsV8J7GFoBU-19" value="USGetSpeedOfSound" style="rounded=0;whiteSpace=wrap;html=1;container=0;" vertex="1" parent="1">
          <mxGeometry x="519" y="180" width="140" height="30" as="geometry" />
        </mxCell>
        <mxCell id="jVVl0sPdiUsV8J7GFoBU-23" style="edgeStyle=orthogonalEdgeStyle;rounded=0;orthogonalLoop=1;jettySize=auto;html=1;exitX=0.5;exitY=1;exitDx=0;exitDy=0;entryX=0.5;entryY=0;entryDx=0;entryDy=0;" edge="1" parent="1" source="jVVl0sPdiUsV8J7GFoBU-20" target="jVVl0sPdiUsV8J7GFoBU-22">
          <mxGeometry relative="1" as="geometry" />
        </mxCell>
        <mxCell id="jVVl0sPdiUsV8J7GFoBU-20" value="Using temperature sensor get temperature" style="rounded=0;whiteSpace=wrap;html=1;" vertex="1" parent="1">
          <mxGeometry x="519" y="230" width="140" height="50" as="geometry" />
        </mxCell>
        <mxCell id="jVVl0sPdiUsV8J7GFoBU-25" style="edgeStyle=orthogonalEdgeStyle;rounded=0;orthogonalLoop=1;jettySize=auto;html=1;exitX=0.5;exitY=1;exitDx=0;exitDy=0;entryX=0.5;entryY=0;entryDx=0;entryDy=0;" edge="1" parent="1" source="jVVl0sPdiUsV8J7GFoBU-22" target="jVVl0sPdiUsV8J7GFoBU-24">
          <mxGeometry relative="1" as="geometry" />
        </mxCell>
        <mxCell id="jVVl0sPdiUsV8J7GFoBU-22" value="Using temperature calculate speed of sound" style="rounded=0;whiteSpace=wrap;html=1;" vertex="1" parent="1">
          <mxGeometry x="519" y="300" width="140" height="50" as="geometry" />
        </mxCell>
        <mxCell id="jVVl0sPdiUsV8J7GFoBU-24" value="Return speed of sound" style="rounded=0;whiteSpace=wrap;html=1;" vertex="1" parent="1">
          <mxGeometry x="519" y="370" width="140" height="50" as="geometry" />
        </mxCell>
        <mxCell id="jVVl0sPdiUsV8J7GFoBU-27" value="" style="group" vertex="1" connectable="0" parent="1">
          <mxGeometry x="169" y="80" width="131" height="60" as="geometry" />
        </mxCell>
        <mxCell id="ndKudGg0fzIpXVuhii56-7" value="" style="rounded=0;whiteSpace=wrap;html=1;" parent="jVVl0sPdiUsV8J7GFoBU-27" vertex="1">
          <mxGeometry width="130" height="60" as="geometry" />
        </mxCell>
        <mxCell id="ndKudGg0fzIpXVuhii56-3" value="&lt;font style=&quot;font-size: 14px;&quot;&gt;Global Variables&lt;/font&gt;" style="text;html=1;align=left;verticalAlign=middle;whiteSpace=wrap;rounded=0;" parent="jVVl0sPdiUsV8J7GFoBU-27" vertex="1">
          <mxGeometry x="2.3214285714285836" width="116.07142857142858" height="39.996" as="geometry" />
        </mxCell>
        <mxCell id="ndKudGg0fzIpXVuhii56-8" value="ticks" style="text;html=1;align=left;verticalAlign=middle;whiteSpace=wrap;rounded=0;" parent="jVVl0sPdiUsV8J7GFoBU-27" vertex="1">
          <mxGeometry x="14.930000000000007" y="28.33" width="116.07" height="21.67" as="geometry" />
        </mxCell>
      </root>
    </mxGraphModel>
  </diagram>
</mxfile>
